<svg width="104" height="19" viewBox="0 0 104 19" fill="none" xmlns="http://www.w3.org/2000/svg">
<path d="M57.6064 0.158203H60.343C61.6285 0.158203 62.5585 0.357563 63.1328 0.756155C63.707 1.15475 63.9941 1.78482 63.9941 2.64624C63.9941 3.24189 63.8329 3.7344 63.5104 4.12378C63.1923 4.50868 62.7263 4.75846 62.1123 4.87298V4.94169C63.5833 5.20286 64.3188 6.00465 64.3188 7.34719C64.3188 8.24521 64.0251 8.9463 63.4375 9.4502C62.8544 9.95423 62.0372 10.2063 60.9858 10.2063H57.6064V0.158203ZM58.7329 4.46057H60.5883C61.3834 4.46057 61.9555 4.33235 62.3045 4.07567C62.6535 3.8145 62.8279 3.37701 62.8279 2.76306C62.8279 2.1994 62.6336 1.7939 62.2448 1.54656C61.856 1.29448 61.2376 1.16857 60.3894 1.16857H58.7329V4.46057ZM58.7329 5.45033V9.20977H60.754C61.5358 9.20977 62.1234 9.05391 62.5165 8.74233C62.914 8.42627 63.1129 7.93363 63.1129 7.26466C63.1129 6.64163 62.9096 6.18341 62.5032 5.89013C62.1013 5.59697 61.4873 5.45033 60.6612 5.45033H58.7329Z" fill="white"/>
<path d="M67.6963 10.2063V0.158203H68.8228V9.14783H73.0967V10.2063H67.6963Z" fill="white"/>
<path d="M82.1246 10.2055L80.9186 7.00962H77.0357L75.8429 10.2055H74.7031L78.5331 0.116211H79.4807L83.2909 10.2055H82.1246ZM80.5675 5.95805L79.441 2.84468C79.2952 2.45069 79.145 1.96726 78.9903 1.39452C78.8932 1.83444 78.7541 2.31774 78.573 2.84468L77.4332 5.95805H80.5675Z" fill="white"/>
<path d="M92.9085 10.2063H91.5832L88.0513 5.3335L87.0376 6.26812V10.2063H85.9111V0.158203H87.0376V5.14105L91.4308 0.158203H92.7627L88.8664 4.5225L92.9085 10.2063Z" fill="white"/>
<path d="M101.626 10.2055L100.421 7.00962H96.5375L95.3449 10.2055H94.2051L98.0351 0.116211H98.9827L102.793 10.2055H101.626ZM100.069 5.95805L98.9429 2.84468C98.7971 2.45069 98.6469 1.96726 98.4923 1.39452C98.3951 1.83444 98.256 2.31774 98.0748 2.84468L96.9351 5.95805H100.069Z" fill="white"/>
<path d="M54.4182 5.16839C54.4182 6.77658 54.025 8.0412 53.2386 8.96212C52.4568 9.88304 51.3679 10.3436 49.9719 10.3436C48.5451 10.3436 47.4429 9.89225 46.6654 8.98963C45.8924 8.0824 45.5059 6.80409 45.5059 5.15457C45.5059 3.51887 45.8946 2.25195 46.6721 1.35393C47.4495 0.451312 48.5539 0 49.9851 0C51.3767 0 52.4634 0.458221 53.2453 1.37454C54.0272 2.29098 54.4182 3.55547 54.4182 5.16839ZM46.6986 5.16839C46.6986 6.52911 46.9769 7.56238 47.5334 8.26794C48.0945 8.96903 48.9073 9.31951 49.9719 9.31951C51.0454 9.31951 51.856 8.96903 52.4038 8.26794C52.9516 7.56698 53.2254 6.53371 53.2254 5.16839C53.2254 3.81663 52.9516 2.79258 52.4038 2.09622C51.8605 1.39514 51.0543 1.04466 49.9851 1.04466C48.9117 1.04466 48.0945 1.39744 47.5334 2.10301C46.9769 2.80409 46.6986 3.82585 46.6986 5.16839Z" fill="#46B4DE"/>
<path d="M32.8096 10.2063V0.158203H33.9361V10.2063H32.8096Z" fill="white"/>
<path d="M40.2608 10.2063H39.1345V1.19608H36.0664V0.158203H43.3289V1.19608H40.2608V10.2063Z" fill="white"/>
<path fill-rule="evenodd" clip-rule="evenodd" d="M2.8952 4.26625C3.6139 3.91619 4.40758 3.77047 5.19682 3.84359L5.85336 3.90431L5.70156 5.7101L5.04502 5.64927C4.55713 5.60405 4.0665 5.69418 3.62222 5.9106C3.40721 6.01534 3.20578 6.14827 3.02274 6.30628L2.96224 6.35855C2.48903 6.76712 2.12948 7.30208 1.92138 7.90693L1.90337 7.95929C1.84601 8.12607 1.80232 8.29767 1.7728 8.4722C1.70399 8.87906 1.71306 9.29619 1.79947 9.69932L1.87121 10.034C1.96541 10.4734 2.16147 10.8816 2.44198 11.2225C2.61273 11.4301 2.8122 11.6094 3.03373 11.7548L3.15602 11.835C3.46053 12.0347 3.79495 12.1792 4.14521 12.2623L4.4986 12.3461C4.63931 12.3796 4.78459 12.386 4.92749 12.3654L5.26415 12.3166C5.42573 12.2932 5.56746 12.1915 5.64689 12.042L7.15541 12.9248C6.81189 13.5714 6.19894 14.0112 5.50015 14.1123L5.16349 14.1611C4.81508 14.2115 4.46087 14.1956 4.11782 14.1142L3.76444 14.0304C3.22487 13.9025 2.70972 13.6799 2.24063 13.3722L2.11834 13.292C1.75015 13.0505 1.41862 12.7523 1.13484 12.4075C0.6686 11.8408 0.342753 11.1622 0.186177 10.4319L0.114453 10.0973C-0.0223103 9.45933 -0.036662 8.79919 0.0722331 8.15537C0.118953 7.87913 0.188077 7.60762 0.278858 7.34367L0.296859 7.2914C0.610357 6.38 1.15204 5.57424 1.86495 4.95862L1.92544 4.90645C2.22153 4.65076 2.5474 4.43564 2.8952 4.26625Z" fill="#46B4DE"/>
<path fill-rule="evenodd" clip-rule="evenodd" d="M7.22502 11.8929C6.41459 10.5554 6.12251 8.95092 6.40722 7.40046C6.87338 4.86165 8.80014 2.87949 11.2583 2.4097L11.3338 2.39525C12.0282 2.26252 12.74 2.25903 13.4355 2.38487L13.7131 2.43503C15.0209 2.67167 16.1925 3.4143 16.9896 4.51183C16.99 4.51243 16.9905 4.51303 16.9908 4.51363L18.0975 6.05562L19.4921 4.9861L18.3827 3.44042L17.6855 3.97513L18.38 3.43664C17.318 1.97283 15.7561 0.982374 14.0124 0.666946L13.7349 0.616746C12.8358 0.454091 11.9157 0.458638 11.0182 0.630168L10.9426 0.644609C7.77991 1.24902 5.30098 3.79932 4.70121 7.06569C4.33491 9.06062 4.71069 11.1249 5.7534 12.8457L5.83552 12.9813C7.17749 15.196 9.47804 16.5972 12.0025 16.7373C14.5482 16.8786 16.9989 15.7197 18.5602 13.6363L18.9989 13.051L17.6261 11.9517L17.1874 12.5371C15.9752 14.1548 14.0722 15.0546 12.0957 14.9449C10.1355 14.8361 8.34914 13.7481 7.30715 12.0285L7.22502 11.8929Z" fill="#46B4DE"/>
<path fill-rule="evenodd" clip-rule="evenodd" d="M22.4536 11.6946C23.2013 10.7989 23.263 9.77526 23.1321 8.68761L22.9471 8.04781C22.6729 6.88273 21.7065 5.92609 20.6031 5.61659L19.8629 5.42465C19.2008 5.23889 18.4699 5.29874 17.889 5.68057L17.176 4.6252C18.1634 3.9762 19.363 3.7869 20.4884 4.10246L20.7659 4.18035C22.4788 4.66076 23.8072 6.08261 24.2329 7.89104L24.2813 8.0971C24.6547 9.6833 24.3039 11.3618 23.3325 12.6378L23.2013 12.8101C22.4837 13.7527 21.4485 14.369 20.3103 14.5311C19.1901 14.6907 18.054 14.3987 17.1305 13.7137L16.6553 13.3611L17.3338 12.7183L17.7039 12.9103C18.6909 13.4221 19.5462 13.3279 20.233 13.2302C20.9308 13.1307 21.6436 12.7843 22.0835 12.2065L22.4536 11.6946Z" fill="#46B4DE"/>
<path d="M24.5508 5.48828L25.1532 5.91626C25.4205 6.10612 25.6611 6.332 25.8685 6.58756C26.1273 6.90658 26.3311 7.26784 26.471 7.65603L26.5387 7.84385C26.8455 8.69502 26.849 9.62831 26.5487 10.4818C26.3583 11.0228 26.052 11.5142 25.6518 11.9204L24.5508 13.0379L25.2405 11.6727C25.4499 11.2583 25.6042 10.8177 25.6994 10.362C25.837 9.7035 25.849 9.02424 25.7347 8.3611L25.7076 8.20358C25.6073 7.62257 25.4027 7.06523 25.1036 6.55951L24.5508 5.48828Z" fill="#46B4DE"/>
<path d="M26.2783 6.89551L26.9133 7.48594C27.1779 7.73189 27.3798 8.03823 27.5021 8.37891C27.6778 8.8689 27.6798 9.40476 27.5078 9.89616L27.4925 9.93972C27.3763 10.2717 27.1886 10.5737 26.9427 10.8244L26.2783 11.502L26.6964 10.6708C26.8241 10.4168 26.9181 10.147 26.976 9.86852C27.0595 9.46715 27.0668 9.05346 26.9975 8.64939L26.9884 8.59652C26.9224 8.21217 26.7936 7.84135 26.6072 7.49916L26.2783 6.89551Z" fill="#46B4DE"/>
<path d="M32.7926 15.7584V11.706H34.1174C34.5572 11.706 34.8875 11.797 35.1083 11.9788C35.3309 12.1606 35.4422 12.4297 35.4422 12.7859C35.4422 12.9752 35.3884 13.1431 35.2808 13.2897C35.1732 13.4344 35.0266 13.5467 34.8411 13.6265C35.06 13.6877 35.2326 13.8046 35.3587 13.9771C35.4868 14.1478 35.5508 14.3519 35.5508 14.5894C35.5508 14.9531 35.433 15.2389 35.1973 15.4467C34.9617 15.6545 34.6286 15.7584 34.1981 15.7584H32.7926ZM33.327 13.863V15.3214H34.2093C34.4579 15.3214 34.6537 15.2574 34.7965 15.1294C34.9413 14.9995 35.0136 14.8214 35.0136 14.595C35.0136 14.107 34.7483 13.863 34.2176 13.863H33.327ZM33.327 13.4344H34.1341C34.3679 13.4344 34.5544 13.376 34.6936 13.2591C34.8346 13.1422 34.9051 12.9835 34.9051 12.7831C34.9051 12.5605 34.8401 12.3991 34.7103 12.2989C34.5804 12.1968 34.3828 12.1458 34.1174 12.1458H33.327V13.4344ZM39.3248 14.4725C39.2747 14.9012 39.1161 15.2324 38.8489 15.4662C38.5835 15.6981 38.2301 15.8141 37.7885 15.8141C37.3098 15.8141 36.9257 15.6424 36.6362 15.2992C36.3486 14.9559 36.2048 14.4967 36.2048 13.9215V13.5318C36.2048 13.1552 36.2716 12.824 36.4052 12.5382C36.5407 12.2525 36.7318 12.0335 36.9786 11.8814C37.2253 11.7274 37.5111 11.6504 37.8358 11.6504C38.2663 11.6504 38.6114 11.771 38.8711 12.0122C39.1309 12.2516 39.2821 12.5837 39.3248 13.0086H38.7876C38.7413 12.6857 38.6401 12.4519 38.4843 12.3072C38.3303 12.1625 38.1141 12.0901 37.8358 12.0901C37.4944 12.0901 37.2263 12.2163 37.0314 12.4686C36.8385 12.721 36.742 13.08 36.742 13.5457V13.9382C36.742 14.3779 36.8338 14.7277 37.0175 14.9874C37.2012 15.2472 37.4582 15.3771 37.7885 15.3771C38.0854 15.3771 38.3126 15.3103 38.4704 15.1767C38.6299 15.0413 38.7357 14.8065 38.7876 14.4725H39.3248ZM42.3474 13.8853H40.5912V15.3214H42.6312V15.7584H40.0568V11.706H42.6034V12.1458H40.5912V13.4483H42.3474V13.8853ZM45.8097 12.1458H43.8559V15.7584H43.3187V11.706H45.8097V12.1458ZM49.631 16.752H49.0994V15.7584H46.191V16.7548H45.6566L45.6538 15.3214H45.985C46.1594 15.1247 46.2977 14.8613 46.3997 14.531C46.5036 14.1989 46.5686 13.8352 46.5945 13.44L46.6836 11.706H49.1078V15.3214H49.6366L49.631 16.752ZM46.5945 15.3214H48.5706V12.1458H47.1985L47.14 13.337C47.1159 13.8027 47.0538 14.1998 46.9536 14.5282C46.8552 14.8566 46.7355 15.121 46.5945 15.3214ZM52.5534 14.7008H50.8556L50.4743 15.7584H49.9232L51.4707 11.706H51.9383L53.4885 15.7584H52.9402L52.5534 14.7008ZM51.017 14.261H52.3947L51.7045 12.3657L51.017 14.261ZM58.5651 13.863C58.5651 14.2601 58.4983 14.6071 58.3647 14.9039C58.2311 15.199 58.0418 15.4244 57.7969 15.5803C57.552 15.7361 57.2663 15.8141 56.9397 15.8141C56.6206 15.8141 56.3376 15.7361 56.0908 15.5803C55.844 15.4225 55.652 15.199 55.5147 14.9095C55.3792 14.6182 55.3097 14.2814 55.306 13.8992V13.607C55.306 13.2173 55.3737 12.8731 55.5091 12.5744C55.6446 12.2757 55.8357 12.0475 56.0825 11.8897C56.3311 11.7302 56.615 11.6504 56.9341 11.6504C57.2588 11.6504 57.5446 11.7292 57.7914 11.887C58.04 12.0428 58.2311 12.2701 58.3647 12.5688C58.4983 12.8657 58.5651 13.2118 58.5651 13.607V13.863ZM58.0335 13.6014C58.0335 13.1208 57.937 12.7525 57.744 12.4965C57.5511 12.2386 57.2811 12.1096 56.9341 12.1096C56.5964 12.1096 56.3302 12.2386 56.1353 12.4965C55.9424 12.7525 55.8431 13.1088 55.8375 13.5652V13.863C55.8375 14.3288 55.935 14.6952 56.1298 14.9624C56.3265 15.2277 56.5964 15.3604 56.9397 15.3604C57.2848 15.3604 57.552 15.2351 57.7413 14.9847C57.9305 14.7323 58.0279 14.3714 58.0335 13.902V13.6014ZM62.0886 12.1458H60.7861V15.7584H60.2545V12.1458H58.9547V11.706H62.0886V12.1458ZM65.6038 11.706V15.7584H65.0694V12.1458H63.6166L63.5442 13.7517C63.5164 14.2898 63.4607 14.6943 63.3772 14.9652C63.2956 15.2361 63.175 15.4355 63.0154 15.5636C62.8559 15.6897 62.6425 15.7547 62.3753 15.7584H62.2V15.3214L62.3113 15.3159C62.4838 15.3029 62.6165 15.2472 62.7093 15.1489C62.802 15.0487 62.8726 14.89 62.9208 14.6729C62.969 14.4559 63.0034 14.1219 63.0238 13.671L63.1073 11.706H65.6038ZM69.1301 11.706H69.6645V15.7584H69.1301V12.6356L67.1346 15.7584H66.5974V11.706H67.1346V14.8288L69.1301 11.706ZM73.497 11.706V15.7584H72.9598V14.0801C72.765 14.1358 72.5878 14.1747 72.4282 14.197C72.2687 14.2174 72.0868 14.2276 71.8827 14.2276C71.4207 14.2276 71.0774 14.1274 70.8529 13.927C70.6284 13.7267 70.5134 13.4196 70.5078 13.0058V11.706H71.045V12.9919C71.0468 13.2739 71.1108 13.4771 71.237 13.6014C71.365 13.7257 71.5803 13.7879 71.8827 13.7879C72.2353 13.7879 72.5943 13.7378 72.9598 13.6376V11.706H73.497ZM77.5771 15.7584H77.04V13.8853H74.9971V15.7584H74.4627V11.706H74.9971V13.4483H77.04V11.706H77.5771V15.7584ZM79.0856 13.3593H80.0932C80.5162 13.3648 80.8465 13.4734 81.084 13.6849C81.3215 13.8964 81.4402 14.184 81.4402 14.5477C81.4402 14.9132 81.3206 15.2045 81.0812 15.4216C80.8418 15.6387 80.5153 15.751 80.1015 15.7584H78.5513V11.706H79.0856V13.3593ZM79.0856 13.799V15.3214H80.0625C80.3279 15.3214 80.5338 15.2509 80.6804 15.1099C80.8289 14.9689 80.9031 14.7796 80.9031 14.5421C80.9031 14.3139 80.8316 14.1339 80.6888 14.0022C80.5478 13.8704 80.3464 13.8027 80.0848 13.799H79.0856ZM82.4645 15.7584H81.9301V11.706H82.4645V15.7584ZM85.7486 13.8853H83.9924V15.3214H86.0325V15.7584H83.4581V11.706H86.0047V12.1458H83.9924V13.4483H85.7486V13.8853ZM90.6666 11.706H91.2009V15.7584H90.6666V12.6356L88.671 15.7584H88.1338V11.706H88.671V14.8288L90.6666 11.706ZM95.8823 16.752H95.3507V15.7584H92.4422V16.7548H91.9079L91.9051 15.3214H92.2363C92.4107 15.1247 92.5489 14.8613 92.651 14.531C92.7549 14.1989 92.8198 13.8352 92.8458 13.44L92.9349 11.706H95.359V15.3214H95.8878L95.8823 16.752ZM92.8458 15.3214H94.8219V12.1458H93.4498L93.3913 13.337C93.3672 13.8027 93.305 14.1998 93.2048 14.5282C93.1065 14.8566 92.9868 15.121 92.8458 15.3214ZM98.813 13.8853H97.0568V15.3214H99.0969V15.7584H96.5224V11.706H99.069V12.1458H97.0568V13.4483H98.813V13.8853ZM102.317 11.706H102.851V15.7584H102.317V12.6356L100.321 15.7584H99.7843V11.706H100.321V14.8288L102.317 11.706Z" fill="white"/>
</svg>
