<svg width="45" height="33" viewBox="0 0 45 33" fill="none" xmlns="http://www.w3.org/2000/svg">
<path d="M30.7133 3.47095L15.196 18.9882H0V20.5399H15.8384L31.3557 5.02267H35.6897V3.47095H30.7133Z" fill="#219653"/>
<path d="M6.98275 28.2986H3.8793V29.8503H6.98275V28.2986Z" fill="#219653"/>
<path d="M15.5172 28.2986H8.53448V29.8503H15.5172V28.2986Z" fill="#219653"/>
<path d="M12.4138 31.402H3.8793V32.9537H12.4138V31.402Z" fill="#219653"/>
<path d="M15.5172 31.402H13.9655V32.9537H15.5172V31.402Z" fill="#219653"/>
<path d="M41.1207 0.0462646L37.2414 3.92558V32.9537H45V3.92558L41.1207 0.0462646ZM43.4483 31.402H38.7931V4.56799L41.1207 2.2404L43.4483 4.56799V31.402Z" fill="#219653"/>
<path d="M27.931 9.67786V32.9537H35.6897V9.67786H27.931ZM34.1379 31.402H29.4828V11.2296H34.1379V31.402Z" fill="#219653"/>
<path d="M18.6207 18.9882V32.9537H26.3793V18.9882H18.6207ZM24.8276 31.402H20.1724V20.5399H24.8276V31.402Z" fill="#219653"/>
<path d="M9.68275 13.3158C9.93723 12.9426 10.0862 12.4934 10.0862 12.0085C10.0862 10.7252 9.04189 9.68091 7.75861 9.68091C6.47534 9.68091 5.43103 10.7252 5.43103 12.0085C5.43103 12.4926 5.57999 12.9426 5.83447 13.3158C4.67223 13.9862 3.8793 15.2283 3.8793 16.6637V17.4395H11.6379V16.6637C11.6379 15.2283 10.845 13.9862 9.68275 13.3158ZM7.75861 11.2326C8.18689 11.2326 8.53447 11.581 8.53447 12.0085C8.53447 12.436 8.18689 12.7844 7.75861 12.7844C7.33034 12.7844 6.98275 12.436 6.98275 12.0085C6.98275 11.581 7.33034 11.2326 7.75861 11.2326ZM5.5637 15.8878C5.88413 14.9847 6.74689 14.3361 7.75861 14.3361C8.77034 14.3361 9.63309 14.9847 9.95353 15.8878H5.5637Z" fill="#219653"/>
</svg>
