<svg width="13" height="15" viewBox="0 0 13 15" fill="none" xmlns="http://www.w3.org/2000/svg">
<path d="M6.39998 0C9.91476 0.0138122 12.7637 2.88148 12.75 6.39174V6.46146C12.7025 8.97001 11.1944 11.0517 9.93781 12.356C9.58021 12.7289 9.19955 13.0867 8.80705 13.4208C8.57194 13.6214 8.21894 13.5938 8.01808 13.359C7.81722 13.1235 7.84554 12.771 8.08064 12.5704C8.44417 12.2606 8.79783 11.9278 9.1304 11.5812C10.2487 10.4209 11.5895 8.58656 11.6303 6.44107C11.6415 3.49382 9.29373 1.12931 6.39537 1.11747H6.37495C3.48647 1.11747 1.13076 3.45896 1.11957 6.3457C1.16896 7.77164 1.65103 9.1272 2.51442 10.2644C3.52203 11.6062 5.05057 13.0268 6.50337 13.9726C6.76285 14.141 6.83595 14.487 6.6667 14.7461C6.56001 14.9106 6.38022 15 6.19714 15C6.09242 15 5.98705 14.9711 5.89222 14.9092C4.33668 13.897 2.69948 12.375 1.62008 10.9379C0.618397 9.61786 0.0579541 8.04262 0 6.3845C0.01383 2.83938 2.87136 0 6.37495 0H6.39998ZM6.37297 4.03756C7.71053 4.03756 8.79914 5.12411 8.79914 6.4606C8.79914 7.79644 7.71053 8.88299 6.37297 8.88299C5.03542 8.88299 3.94681 7.79644 3.94681 6.4606C3.94681 6.15147 4.19772 5.90154 4.50659 5.90154C4.81546 5.90154 5.06637 6.15147 5.06637 6.4606C5.06637 7.17949 5.6525 7.76552 6.37297 7.76552C7.09345 7.76552 7.67958 7.17949 7.67958 6.4606C7.67958 5.74106 7.09345 5.15503 6.37297 5.15503C6.06411 5.15503 5.81319 4.90509 5.81319 4.59662C5.81319 4.28749 6.06411 4.03756 6.37297 4.03756Z" fill="white"/>
</svg>
