<svg width="24" height="22" viewBox="0 0 24 22" fill="none" xmlns="http://www.w3.org/2000/svg">
<path d="M17.0367 0C20.8776 0.0119602 23.9883 3.20369 24 7.14455V8.93069L23.9922 9.04892C23.936 9.4742 23.5807 9.80198 23.1508 9.80198L23.1402 9.7802L23.0066 9.76934C22.8309 9.74062 22.6671 9.65572 22.5397 9.525C22.3805 9.36161 22.291 9.13999 22.291 8.90891V7.14455C22.2623 4.17945 19.9266 1.78297 17.0367 1.75347H6.96329C4.07341 1.78297 1.73774 4.17945 1.70898 7.14455V14.8554C1.73774 17.8206 4.07341 20.217 6.96329 20.2465H17.0367C19.9266 20.217 22.2623 17.8206 22.291 14.8554C22.3396 14.4089 22.7076 14.0711 23.1455 14.0711C23.5835 14.0711 23.9514 14.4089 24 14.8554C23.9883 18.7963 20.8776 21.988 17.0367 22H6.96329C3.12 21.994 0.00584533 18.7988 0 14.8554V7.14455C0 3.19873 3.11757 0 6.96329 0H17.0367ZM5.15332 6.58402C5.37684 6.55945 5.60062 6.62799 5.77444 6.77426L10.7634 10.8257C11.3866 11.3274 12.2631 11.3274 12.8863 10.8257L17.8222 6.77426H17.8328L17.9369 6.70134C18.2955 6.48766 18.7614 6.56651 19.0323 6.90495C19.1742 7.08645 19.2395 7.31866 19.2136 7.54984C19.1877 7.78103 19.0727 7.99196 18.8943 8.13564L13.9584 12.198C12.7034 13.2343 10.9145 13.2343 9.65944 12.198L4.71296 8.13564L4.62163 8.04657C4.3427 7.73171 4.31998 7.24777 4.58558 6.90495C4.72525 6.72422 4.9298 6.60859 5.15332 6.58402Z" fill="white"/>
</svg>
