<svg width="15" height="15" viewBox="0 0 15 15" fill="none" xmlns="http://www.w3.org/2000/svg">
<path d="M10.3103 0C13.206 0 15 1.79475 15 4.692V10.317C15 13.206 13.206 15 10.3103 15H4.683C1.794 15 1.63342e-06 13.206 0.000753274 10.3148C0.000753274 9.99825 0.257253 9.741 0.574503 9.741C0.891753 9.741 1.14825 9.99825 1.14825 10.3148C1.14825 12.5903 2.4015 13.8502 4.6905 13.8502H10.3103C12.5925 13.8502 13.8525 12.597 13.8525 10.3148V4.68975C13.8525 2.4075 12.6 1.1475 10.3103 1.1475H4.68975C2.4075 1.1475 1.1475 2.4075 1.1475 4.68975V6.438C1.1475 6.7515 0.894003 7.005 0.580503 7.005H0.572253C0.255753 7.005 -0.000746726 6.74775 1.63339e-06 6.43125V4.68975C1.63339e-06 1.79475 1.8075 0 4.6905 0H10.3103ZM7.50015 3.66285C7.81065 3.66285 8.06265 3.91485 8.06265 4.22535V7.1766L10.3322 8.5296C10.5984 8.68935 10.6862 9.03435 10.5272 9.30135C10.4222 9.4776 10.2347 9.57585 10.0434 9.57585C9.94515 9.57585 9.84615 9.55035 9.7554 9.49635L7.21215 7.9791C7.0419 7.8771 6.93765 7.69335 6.93765 7.49535V4.22535C6.93765 3.91485 7.18965 3.66285 7.50015 3.66285Z" fill="white"/>
</svg>
