<svg width="11" height="11" viewBox="0 0 11 11" fill="none" xmlns="http://www.w3.org/2000/svg">
<path fill-rule="evenodd" clip-rule="evenodd" d="M1.26586 1.64261C1.26694 1.64261 1.24011 1.67051 1.2063 1.70378C1.07645 1.82987 0.80763 2.09225 0.80492 2.64117C0.800655 3.409 1.30557 4.83467 3.73677 7.26534C6.15671 9.68421 7.58024 10.195 8.34968 10.195H8.36095C8.90986 10.1923 9.17171 9.92298 9.29834 9.79367C9.33697 9.75396 9.36809 9.72499 9.39009 9.70674C9.92452 9.1691 10.1982 8.76882 10.1955 8.51233C10.1917 8.25049 9.86603 7.94089 9.41585 7.5127C9.27258 7.37641 9.11698 7.22832 8.95279 7.06413C8.52728 6.6397 8.31641 6.71214 7.85282 6.87525C7.21161 7.10008 6.33163 7.40592 4.96445 6.0382C3.59512 4.66994 3.9015 3.79104 4.12579 3.14984C4.28783 2.68624 4.36188 2.47483 3.93584 2.04879C3.76897 1.88246 3.61927 1.7247 3.48137 1.57983C3.05587 1.13233 2.74895 0.808776 2.48871 0.80502H2.48442C2.2274 0.80502 1.82819 1.07974 1.26318 1.64475C1.26479 1.64314 1.26533 1.64261 1.26586 1.64261ZM8.35022 10.9999C7.01308 10.9999 5.26976 9.93532 3.16801 7.83464C1.05821 5.72538 -0.00795862 3.97669 4.47246e-05 2.63687C0.0049191 1.75153 0.469053 1.29813 0.643439 1.12804C0.652561 1.11677 0.683682 1.08618 0.694414 1.07545C1.46386 0.305472 1.98272 -0.00573999 2.4989 8.00227e-05C3.09825 0.00821087 3.52483 0.456785 4.06462 1.02501C4.19823 1.1656 4.3431 1.31852 4.50461 1.47949C5.288 2.26288 5.06479 2.90194 4.88557 3.4149C4.69026 3.97455 4.52124 4.45746 5.53322 5.46944C6.54626 6.48141 7.02918 6.31239 7.58668 6.11547C8.10017 5.93625 8.73762 5.71197 9.52209 6.49536C9.68091 6.65419 9.83169 6.79745 9.97066 6.92998C10.5416 7.47246 10.9923 7.90118 10.9999 8.50214C11.0062 9.01456 10.695 9.53665 9.92666 10.3056L9.58648 10.0748L9.87408 10.356C9.70399 10.5304 9.25112 10.9951 8.36524 10.9999H8.35022Z" fill="#219653"/>
</svg>
