<svg width="15" height="15" viewBox="0 0 15 15" fill="none" xmlns="http://www.w3.org/2000/svg">
<path d="M1.72972 6.43864C1.98622 6.26473 2.33648 6.3277 2.51199 6.58331C4.45828 9.40862 8.01338 12.5892 10.2754 13.5293C11.1905 13.9543 11.8715 13.9805 12.3785 13.617C12.7737 13.3778 13.8965 12.2624 13.8763 11.6822C13.8695 11.614 13.7915 11.4858 13.6588 11.3501C13.2268 10.9078 11.777 9.81116 11.474 9.69722C11.2347 9.64624 10.9857 9.79167 10.6062 10.0308L10.4142 10.15C10.1479 10.3097 9.80217 10.2249 9.64167 9.95808C9.48191 9.69272 9.56742 9.34715 9.83367 9.18673L10.0069 9.07953C10.4269 8.81492 11.0067 8.45361 11.7357 8.60503C12.3102 8.72422 14.117 10.21 14.4628 10.563C14.7883 10.8959 14.9683 11.2504 14.9991 11.6155C15.0478 12.997 13.1975 14.4408 12.9853 14.5622C12.5817 14.8531 12.1085 15 11.576 15C11.0465 15 10.4584 14.8546 9.82167 14.5577C7.37286 13.5412 3.66927 10.2452 1.58571 7.22049C1.40946 6.96487 1.47396 6.6148 1.72972 6.43864ZM3.227 0.000736145L3.35958 0.00281261C3.74659 0.0350461 4.1006 0.214954 4.43286 0.538788C4.78687 0.884361 6.27341 2.69243 6.39266 3.26439C6.52091 3.87983 6.24416 4.36033 6.0424 4.71115C5.84365 5.05672 5.77464 5.2044 5.8429 5.39105C6.34466 6.61817 7.12018 7.62116 8.14095 8.34978C8.39371 8.53119 8.45146 8.88201 8.27071 9.13463C8.1612 9.28755 7.9887 9.37001 7.8132 9.37001C7.69919 9.37001 7.58519 9.33553 7.48619 9.26506C6.29066 8.40975 5.38463 7.2426 4.79287 5.79509C4.53261 5.07921 4.84162 4.54249 5.06738 4.15044C5.23688 3.85659 5.33063 3.68118 5.29088 3.49377C5.18588 3.22316 4.08935 1.77565 3.64684 1.34462C3.51034 1.21044 3.38208 1.13173 3.28683 1.12424C2.74982 1.11149 1.65179 2.17295 1.40278 2.58599C1.01652 3.11672 1.04352 3.79662 1.45828 4.7074C1.58654 4.99001 1.46203 5.32284 1.17928 5.45177C0.895769 5.57995 0.563511 5.45627 0.434508 5.17291C-0.155758 3.87833 -0.144507 2.79738 0.467508 1.96306C0.695514 1.5815 2.1288 -0.0773963 3.35958 0.00281261L3.227 0.000736145Z" fill="white"/>
</svg>
